<svg width="513" height="512" viewBox="0 0 513 512" fill="none" xmlns="http://www.w3.org/2000/svg">
<path d="M467.583 297.29H404.668V249.46L382.906 244.34C380.156 234.76 376.34 225.544 371.501 216.824L383.269 197.814L364.497 179.043L408.45 124.102C417.048 129.164 427.024 132.129 437.703 132.129C469.582 132.129 495.514 106.199 495.514 74.3226C495.514 42.4465 469.582 16.5161 437.703 16.5161C409.912 16.5161 386.655 36.2281 381.147 62.3979L239.261 53.248C236.924 23.5025 212.015 0 181.681 0C149.802 0 123.869 25.9303 123.869 57.8064C123.869 89.6826 149.802 115.613 181.681 115.613C209.472 115.613 232.728 95.9009 238.237 69.7311L380.123 78.881C381.18 92.3334 386.854 104.473 395.567 113.771L352.753 167.292L338.986 153.526L319.974 165.293C311.253 160.454 302.036 156.631 292.456 153.881L287.327 132.129H224.693L219.572 153.881C209.992 156.631 200.775 160.446 192.054 165.293L173.042 153.526L128.75 197.814L140.519 216.824C135.679 225.544 131.856 234.76 129.105 244.34L107.352 249.46V297.29H44.4365L3.14258 379.871H41.2816V512H470.738V379.871H508.877L467.583 297.29ZM437.703 33.0323C460.472 33.0323 478.997 51.5551 478.997 74.3226C478.997 97.0901 460.472 115.613 437.703 115.613C414.933 115.613 396.409 97.0901 396.409 74.3226C396.409 51.5551 414.933 33.0323 437.703 33.0323ZM181.681 99.0968C158.911 99.0968 140.387 80.5739 140.387 57.8064C140.387 35.039 158.911 16.5161 181.681 16.5161C204.45 16.5161 222.975 35.039 222.975 57.8064C222.975 80.5739 204.45 99.0968 181.681 99.0968ZM482.152 363.355H310.666L285.89 313.806H457.375L482.152 363.355ZM227.492 297.29C224.577 292.286 222.975 286.662 222.975 280.774C222.975 262.557 237.791 247.742 256.01 247.742C274.229 247.742 289.045 262.557 289.045 280.774C289.045 286.67 287.443 292.278 284.536 297.29H227.492ZM175.272 297.29C174.174 291.865 173.422 286.357 173.422 280.774C173.422 235.239 210.471 198.194 256.01 198.194C301.549 198.194 338.598 235.239 338.598 280.774C338.598 286.365 337.846 291.865 336.748 297.29H302.688C304.547 292.038 305.562 286.489 305.562 280.774C305.562 253.448 283.338 231.226 256.01 231.226C228.682 231.226 206.457 253.448 206.457 280.774C206.457 286.489 207.473 292.038 209.339 297.29H175.272ZM123.869 262.54L142.633 258.122L143.839 253.209C146.622 241.846 151.123 231.003 157.21 220.969L159.836 216.642L149.686 200.242L175.478 174.452L191.88 184.601L196.208 181.975C206.234 175.889 217.086 171.396 228.45 168.605L233.364 167.399L237.774 148.645H274.245L278.664 167.407L283.578 168.613C294.942 171.396 305.785 175.897 315.82 181.983L320.147 184.609L336.549 174.46L362.342 200.25L352.192 216.65L354.818 220.978C360.896 230.995 365.397 241.846 368.189 253.217L369.395 258.131L388.15 262.54V297.29H353.686C354.595 291.848 355.115 286.332 355.115 280.774C355.115 226.131 310.658 181.677 256.01 181.677C201.361 181.677 156.905 226.131 156.905 280.774C156.905 286.332 157.425 291.848 158.333 297.29H123.869V262.54ZM54.6443 313.806H242.647L217.871 363.355H29.868L54.6443 313.806ZM57.7992 379.871H228.079L256.01 324.013V495.484H57.7992V379.871ZM454.22 495.484H272.527V324.013L300.459 379.871H454.22V495.484Z" fill="#1571A8"/>
<path d="M437.724 99.0918C451.383 99.0918 462.499 87.9763 462.499 74.3174C462.499 60.6584 451.383 49.543 437.724 49.543C424.066 49.543 412.95 60.6584 412.95 74.3174C412.95 87.9763 424.066 99.0918 437.724 99.0918ZM437.724 66.0592C442.275 66.0592 445.982 69.7671 445.982 74.3174C445.982 78.8676 442.275 82.5755 437.724 82.5755C433.174 82.5755 429.466 78.8676 429.466 74.3174C429.466 69.7671 433.174 66.0592 437.724 66.0592Z" fill="#1571A8"/>
<path d="M181.703 33.0288C168.044 33.0288 156.929 44.1443 156.929 57.8032C156.929 71.4622 168.044 82.5776 181.703 82.5776C195.362 82.5776 206.477 71.4622 206.477 57.8032C206.477 44.1443 195.362 33.0288 181.703 33.0288ZM181.703 66.0614C177.153 66.0614 173.445 62.3534 173.445 57.8032C173.445 53.253 177.153 49.5451 181.703 49.5451C186.253 49.5451 189.961 53.253 189.961 57.8032C189.961 62.3534 186.253 66.0614 181.703 66.0614Z" fill="#1571A8"/>
<path d="M41.2939 198.181H115.623V156.89C115.623 134.123 97.0984 115.6 74.329 115.6H41.2939C18.5244 115.6 0 134.123 0 156.89C0 179.658 18.5244 198.181 41.2939 198.181ZM41.2939 132.116H74.329C87.989 132.116 99.1053 143.232 99.1053 156.89V181.665H41.2939C27.6339 181.665 16.5176 170.549 16.5176 156.89C16.5176 143.232 27.6339 132.116 41.2939 132.116Z" fill="#1571A8"/>
<path d="M33.0283 148.657H49.5444V165.174H33.0283V148.657Z" fill="#1571A8"/>
<path d="M66.0576 148.657H82.5737V165.174H66.0576V148.657Z" fill="#1571A8"/>
<path d="M437.673 148.657C414.903 148.657 396.379 167.18 396.379 189.948V231.238H470.708C493.477 231.238 512.002 212.715 512.002 189.948C512.002 167.18 493.477 148.657 470.708 148.657H437.673ZM495.484 189.948C495.484 203.606 484.368 214.722 470.708 214.722H412.896V189.948C412.896 176.289 424.013 165.173 437.673 165.173H470.708C484.368 165.173 495.484 176.289 495.484 189.948Z" fill="#1571A8"/>
<path d="M462.443 181.686H478.959V198.201H462.443V181.686Z" fill="#1571A8"/>
<path d="M429.407 181.686H445.923V198.201H429.407V181.686Z" fill="#1571A8"/>
<path d="M74.2861 396.4V478.98H239.462V396.4H74.2861ZM222.944 462.464H90.8037V412.916H222.944V462.464Z" fill="#1571A8"/>
<path d="M189.957 429.421H206.473V445.938H189.957V429.421Z" fill="#1571A8"/>
<path d="M156.929 429.421H173.445V445.938H156.929V429.421Z" fill="#1571A8"/>
<path d="M123.9 429.421H140.417V445.938H123.9V429.421Z" fill="#1571A8"/>
<path d="M421.179 462.457H437.695V478.973H421.179V462.457Z" fill="#1571A8"/>
<path d="M388.15 462.457H404.667V478.973H388.15V462.457Z" fill="#1571A8"/>
<path d="M355.114 462.457H371.63V478.973H355.114V462.457Z" fill="#1571A8"/>
<path d="M355.114 429.421H437.695V445.938H355.114V429.421Z" fill="#1571A8"/>
</svg>
