<svg width="512" height="513" viewBox="0 0 512 513" fill="none" xmlns="http://www.w3.org/2000/svg">
<path d="M162.141 264.569C162.141 269.281 165.962 273.101 170.674 273.101H238.939C243.651 273.101 247.472 269.281 247.472 264.569V196.314C247.397 177.051 234.414 160.229 215.798 155.267C235.476 135.167 235.247 102.952 215.281 83.1345C195.319 63.3172 163.099 63.3172 143.137 83.1345C123.171 102.952 122.942 135.167 142.621 155.267C124 160.229 111.022 177.051 110.942 196.314V225.647C110.942 230.358 114.763 234.178 119.475 234.178C124.188 234.178 128.009 230.358 128.009 225.647V196.314C128.009 182.179 139.471 170.719 153.608 170.719H204.806C218.948 170.719 230.406 182.179 230.406 196.314V256.037H170.674C165.962 256.037 162.141 259.857 162.141 264.569ZM179.207 85.4007C198.061 85.4007 213.34 100.681 213.34 119.528C213.34 138.375 198.061 153.655 179.207 153.655C160.358 153.655 145.075 138.375 145.075 119.528C145.075 100.681 160.358 85.4007 179.207 85.4007Z" fill="#1571A8"/>
<path d="M204.809 213.378C209.521 213.378 213.341 209.558 213.341 204.846C213.341 200.135 209.521 196.314 204.809 196.314H187.746C183.034 196.314 179.214 200.135 179.214 204.846C179.214 209.558 183.034 213.378 187.746 213.378H204.809Z" fill="#1571A8"/>
<path d="M504.5 432.105L401.924 329.544C394.149 322.158 382.666 320.237 372.912 324.695L327.688 279.478C381.858 199.305 362.583 90.6114 284.144 33.9507C205.704 -22.7143 96.4407 -6.87541 37.3257 69.7276C-21.7851 146.331 -9.39381 256.024 65.3208 317.513C68.9582 320.508 74.3372 319.991 77.3329 316.35C80.3329 312.714 79.812 307.335 76.1746 304.34C7.44323 248.054 -3.26481 146.981 52.1545 77.5512C107.57 8.12192 208.513 -3.86345 278.652 50.6602C348.788 105.184 362.054 205.953 308.418 276.766C306.372 279.478 304.289 282.148 302.077 284.714C301.889 284.948 301.677 285.152 301.481 285.381C296.518 291.092 291.16 296.45 285.448 301.411C285.181 301.645 284.935 301.899 284.665 302.128C282.102 304.307 279.49 306.394 276.819 308.385C248.77 329.761 214.479 341.346 179.209 341.359C176.505 341.359 173.818 341.221 171.147 341.079C166.435 340.817 162.406 344.429 162.143 349.14C161.885 353.852 165.497 357.881 170.21 358.143C173.205 358.301 176.18 358.447 179.209 358.447C214.937 358.485 249.853 347.787 279.423 327.732L329.522 377.823C332.855 381.156 338.255 381.156 341.588 377.823L377.791 341.625C381.174 338.409 386.483 338.409 389.866 341.625L492.434 444.194C495.759 447.523 495.759 452.918 492.434 456.246L456.239 492.448C454.639 494.052 452.464 494.952 450.202 494.952C447.935 494.952 445.764 494.052 444.164 492.448L376.941 425.235C373.591 422.003 368.271 422.048 364.979 425.339C361.688 428.631 361.642 433.95 364.875 437.3L432.098 504.513C442.094 514.511 458.306 514.511 468.305 504.513L504.5 468.319C514.5 458.325 514.5 442.116 504.5 432.122V432.105ZM317.351 293.246L359.688 335.576L335.555 359.709L293.214 317.375C302.002 310.114 310.085 302.032 317.351 293.246Z" fill="#1571A8"/>
<path d="M179.219 307.231C174.506 307.231 170.686 311.052 170.686 315.763C170.686 320.475 174.506 324.295 179.219 324.295C224.13 324.441 266.558 303.715 294.04 268.201C321.527 232.691 330.948 186.424 319.54 142.994C318.361 138.432 313.707 135.687 309.14 136.866C304.578 138.041 301.832 142.698 303.011 147.26C313.107 185.578 304.811 226.417 280.557 257.757C256.304 289.101 218.855 307.381 179.219 307.231Z" fill="#1571A8"/>
<path d="M249.386 52.3379C184.867 16.5776 103.773 34.966 60.995 95.0594C18.217 155.149 27.3959 237.78 82.3152 287.021C84.5776 289.116 87.79 289.829 90.7233 288.887C93.6524 287.946 95.8523 285.5 96.4731 282.484C97.094 279.464 96.0398 276.348 93.7149 274.327C45.2996 230.868 37.2289 157.998 74.9571 104.999C112.685 51.9962 184.196 35.7617 241.119 67.2685C245.24 69.5514 250.436 68.06 252.719 63.9358C255.002 59.8157 253.51 54.6208 249.386 52.3379V52.3379Z" fill="#1571A8"/>
<path d="M76.8114 452.271C72.099 452.271 68.2783 456.092 68.2783 460.803C68.2783 465.515 72.099 469.335 76.8114 469.335H128.01C132.722 469.335 136.543 465.515 136.543 460.803C136.543 456.092 132.722 452.271 128.01 452.271H76.8114Z" fill="#1571A8"/>
<path d="M238.942 375.482H145.078V264.569C145.094 260.694 142.494 257.299 138.753 256.299C135.011 255.295 131.061 256.941 129.141 260.303L63.3299 375.482H51.2135C37.0764 375.482 25.6143 386.943 25.6143 401.078V486.396C25.6143 500.531 37.0764 511.991 51.2135 511.991H238.942C253.083 511.991 264.541 500.531 264.541 486.396V469.332C264.541 464.621 260.72 460.8 256.008 460.8C251.296 460.8 247.475 464.621 247.475 469.332V486.396C247.475 491.108 243.654 494.928 238.942 494.928H51.2135C46.5012 494.928 42.6805 491.108 42.6805 486.396V401.078C42.6805 396.366 46.5012 392.546 51.2135 392.546H68.2797C71.3338 392.554 74.1587 390.925 75.6879 388.28L128.011 296.7V384.014C128.011 388.726 131.832 392.546 136.545 392.546H238.942C243.654 392.546 247.475 396.366 247.475 401.078V418.141C247.475 422.853 251.296 426.673 256.008 426.673C260.72 426.673 264.541 422.853 264.541 418.141V401.078C264.541 386.943 253.083 375.482 238.942 375.482V375.482Z" fill="#1571A8"/>
<path d="M162.141 426.675C162.141 421.963 158.32 418.143 153.608 418.143H93.8759C89.1635 418.143 85.3428 421.963 85.3428 426.675C85.3428 431.386 89.1635 435.207 93.8759 435.207H153.608C158.32 435.207 162.141 431.386 162.141 426.675Z" fill="#1571A8"/>
<path d="M230.412 426.675C230.412 421.963 226.592 418.143 221.879 418.143H187.747C183.035 418.143 179.214 421.963 179.214 426.675C179.214 431.386 183.035 435.207 187.747 435.207H221.879C226.592 435.207 230.412 431.386 230.412 426.675Z" fill="#1571A8"/>
<path d="M162.141 469.335H196.273C200.985 469.335 204.806 465.515 204.806 460.803C204.806 456.092 200.985 452.271 196.273 452.271H162.141C157.428 452.271 153.607 456.092 153.607 460.803C153.607 465.515 157.428 469.335 162.141 469.335Z" fill="#1571A8"/>
<path d="M375.476 68.3424H452.274C456.987 68.3424 460.808 64.5223 460.808 59.8106C460.808 55.099 456.987 51.2788 452.274 51.2788H375.476C370.764 51.2788 366.943 55.099 366.943 59.8106C366.943 64.5223 370.764 68.3424 375.476 68.3424Z" fill="#1571A8"/>
<path d="M375.476 110.992H452.274C456.987 110.992 460.808 107.172 460.808 102.461C460.808 97.7489 456.987 93.9287 452.274 93.9287H375.476C370.764 93.9287 366.943 97.7489 366.943 102.461C366.943 107.172 370.764 110.992 375.476 110.992Z" fill="#1571A8"/>
<path d="M452.27 136.593H409.604C404.892 136.593 401.071 140.413 401.071 145.125C401.071 149.836 404.892 153.656 409.604 153.656H452.27C456.982 153.656 460.803 149.836 460.803 145.125C460.803 140.413 456.982 136.593 452.27 136.593Z" fill="#1571A8"/>
<path d="M452.27 179.25H409.604C404.892 179.25 401.071 183.07 401.071 187.782C401.071 192.493 404.892 196.314 409.604 196.314H452.27C456.982 196.314 460.803 192.493 460.803 187.782C460.803 183.07 456.982 179.25 452.27 179.25Z" fill="#1571A8"/>
<path d="M392.533 247.506C387.821 247.506 384 251.326 384 256.038C384 260.749 387.821 264.569 392.533 264.569H443.732C453.156 264.569 460.798 256.929 460.798 247.506V230.442C460.798 221.019 453.156 213.378 443.732 213.378H392.533C387.821 213.378 384 217.199 384 221.91C384 226.622 387.821 230.442 392.533 230.442H443.732V247.506H392.533Z" fill="#1571A8"/>
</svg>
