<svg width="512" height="512" viewBox="0 0 512 512" fill="none" xmlns="http://www.w3.org/2000/svg">
<path d="M457.345 408.036C462.833 400.452 466.08 391.145 466.08 381.09V321C466.08 315.477 461.602 311 456.08 311H411.388C390.728 311 373.92 327.808 373.92 348.468V381.09C373.92 391.139 377.163 400.439 382.644 408.021C375.808 409.13 369.231 411.32 363.097 414.526C349.203 393.794 326.44 379.496 300.282 377.084C300.18 377.055 300.076 377.034 299.973 377.009C309.332 366.558 315.037 352.77 315.037 337.67V256C315.037 250.477 310.559 246 305.037 246H244.295C218.196 246 196.963 267.233 196.963 293.332V337.669C196.963 352.769 202.668 366.557 212.027 377.008C211.924 377.033 211.82 377.055 211.718 377.083C185.557 379.495 162.793 393.795 148.9 414.53C142.764 411.325 136.186 409.133 129.353 408.024C134.835 400.442 138.08 391.14 138.08 381.09V321C138.08 315.477 133.602 311 128.08 311H83.388C62.728 311 45.92 327.808 45.92 348.468V381.09C45.92 391.146 49.167 400.452 54.655 408.036C23.702 413.095 0 440.014 0 472.375V502C0 507.523 4.478 512 10 512H502C507.522 512 512 507.523 512 502V472.375C512 440.014 488.298 413.095 457.345 408.036ZM65.92 348.468C65.92 338.836 73.756 331 83.388 331H118.08V343.179C118.08 349.151 113.222 354.009 107.251 354.009H65.92V348.468ZM65.92 374.008H107.251C111.061 374.008 114.709 373.309 118.08 372.039V381.09C118.08 395.47 106.381 407.17 92 407.17C77.619 407.17 65.92 395.47 65.92 381.09V374.008V374.008ZM98.447 427.17L92 433.617L85.553 427.17H98.447ZM134.552 461.736V492H20V472.375C20 449.946 36.423 431.288 57.873 427.774L84.929 454.83C86.805 456.705 89.348 457.759 92 457.759C94.652 457.759 97.195 456.705 99.071 454.83L126.135 427.765C130.915 428.543 135.512 430.084 139.796 432.338C136.408 441.504 134.552 451.407 134.552 461.736ZM256.001 376.707C234.476 376.707 216.964 359.195 216.964 337.67V324.453H276.728C283.355 324.453 289.595 322.76 295.038 319.786V337.67C295.038 359.195 277.526 376.707 256.001 376.707ZM273.432 396.706L256 414.138L238.568 396.706H273.432V396.706ZM216.962 293.332H216.963C216.963 278.261 229.224 266 244.295 266H295.037V286.144C295.037 296.24 286.823 304.454 276.727 304.454H216.962V293.332ZM357.447 492H338H174H154.553V472H219.667C225.189 472 229.667 467.523 229.667 462C229.667 456.477 225.189 452 219.667 452H155.284C159.57 423.579 182.32 401.144 210.883 397.305L248.929 435.351C250.882 437.304 253.441 438.28 256 438.28C258.559 438.28 261.118 437.304 263.071 435.351L301.117 397.305C332.873 401.573 357.447 428.83 357.447 461.736V492V492ZM393.92 348.468C393.92 338.836 401.756 331 411.388 331H446.08V343.179C446.08 349.151 441.222 354.009 435.251 354.009H393.92V348.468ZM393.92 374.008H435.251C439.061 374.008 442.709 373.309 446.08 372.039V381.09C446.08 395.47 434.381 407.17 420 407.17C405.619 407.17 393.92 395.47 393.92 381.09V374.008V374.008ZM426.447 427.17L420 433.617L413.553 427.17H426.447ZM377.447 492V461.736C377.447 451.406 375.591 441.503 372.202 432.336C376.484 430.08 381.08 428.54 385.861 427.763L412.928 454.83C414.804 456.705 417.347 457.759 419.999 457.759C422.651 457.759 425.194 456.705 427.07 454.83L454.126 427.774C475.576 431.289 491.999 449.946 491.999 472.375V492H377.447Z" fill="#1571A8"/>
<path d="M305.283 65.3394C301.377 61.4344 295.047 61.4344 291.14 65.3394L242.07 114.41L220.857 93.1974C216.951 89.2914 210.621 89.2914 206.715 93.1964C202.81 97.1014 202.81 103.433 206.715 107.339L234.999 135.623C236.875 137.498 239.418 138.552 242.07 138.552C244.722 138.552 247.265 137.498 249.141 135.623L305.283 79.4814C309.188 75.5764 309.188 69.2444 305.283 65.3394Z" fill="#1571A8"/>
<path d="M296.887 8.67256C291.844 6.42356 285.931 8.68856 283.681 13.7326C281.431 18.7766 283.697 24.6896 288.741 26.9386C317.74 39.8716 336.478 68.7386 336.478 100.481C336.478 144.857 300.375 180.96 255.999 180.96C211.623 180.96 175.52 144.857 175.52 100.481C175.52 68.9026 194.123 40.0956 222.913 27.0926C227.946 24.8196 230.184 18.8956 227.91 13.8626C225.637 8.82856 219.71 6.59157 214.681 8.86456C178.743 25.0966 155.521 61.0576 155.521 100.48C155.52 155.885 200.595 200.96 255.999 200.96C311.403 200.96 356.478 155.885 356.478 100.481C356.478 60.8536 333.087 24.8166 296.887 8.67256Z" fill="#1571A8"/>
<path d="M256.358 0H256C250.478 0 246 4.477 246 10C246 15.523 250.478 20 256 20H256.264C256.28 20 256.295 20 256.312 20C261.813 20 266.285 15.554 266.311 10.047C266.337 4.524 261.881 0.026 256.358 0Z" fill="#1571A8"/>
<path d="M263.069 433.93C261.21 432.07 258.63 431 256 431C253.37 431 250.79 432.07 248.93 433.93C247.07 435.79 246 438.37 246 441C246 443.63 247.069 446.21 248.93 448.07C250.791 449.93 253.37 451 256 451C258.63 451 261.21 449.93 263.069 448.07C264.929 446.21 266 443.63 266 441C266 438.37 264.93 435.79 263.069 433.93Z" fill="#1571A8"/>
</svg>
