<svg width="512" height="512" viewBox="0 0 512 512" fill="none" xmlns="http://www.w3.org/2000/svg">
<g clip-path="url(#clip0)">
<path d="M232.493 390.324C228.591 394.223 228.591 400.555 232.493 404.461C236.403 408.363 242.731 408.363 246.63 404.461C250.54 400.555 250.54 394.223 246.63 390.324C242.731 386.414 236.403 386.414 232.493 390.324V390.324Z" fill="#1571A8"/>
<path d="M488.917 372.957L412.995 308.398C412.644 308.102 412.272 307.828 411.886 307.582C391.968 294.902 366.394 297.711 349.694 314.406L308.3 355.797C305.433 358.668 301.155 359.516 297.405 357.969C250.663 338.633 212.265 309.523 183.276 271.457C161.171 242.43 153.202 219.363 152.151 216.113C152.026 215.418 151.827 214.727 151.546 214.051C149.995 210.301 150.843 206.031 153.718 203.164L195.108 161.762C211.808 145.063 214.612 119.488 201.933 99.5704C201.831 99.4103 201.726 99.254 201.616 99.0978L146.788 22.9064C129.538 -3.85534 91.9639 -7.89831 69.4131 14.6486L61.1241 22.9376C61.1201 22.9454 61.1123 22.9532 61.1045 22.9572L31.5108 52.5509C-3.77829 87.8439 -9.55172 140.875 14.8194 205.922C35.6944 261.641 77.4834 322.621 132.487 377.625C188.792 433.93 251.421 476.492 308.835 497.473C365.663 518.234 426.112 520.793 468.897 478.004L496.808 450.098C519.257 427.645 515.339 390.316 488.917 372.957V372.957ZM400.604 324.109L476.46 388.613C476.808 388.91 477.179 389.184 477.565 389.43C493.769 399.746 496.222 422.402 482.663 435.957L480.593 438.031L351.214 341.164L363.835 328.547C373.698 318.68 388.729 316.895 400.604 324.109V324.109ZM130.081 33.8947C130.183 34.0548 130.288 34.215 130.397 34.3673L185.202 110.531C192.647 122.449 190.925 137.664 180.968 147.621L168.737 159.856L81.2061 31.1368L83.5537 28.7892C97.167 15.1759 119.804 17.7501 130.081 33.8947ZM315.694 478.688C260.96 458.688 200.917 417.773 146.628 363.484C93.5967 310.457 53.4366 252.008 33.542 198.906C18.6084 159.047 8.5889 103.754 45.6514 66.6954L66.8115 45.5314L154.343 174.25L139.581 189.02C131.183 197.402 128.542 209.809 132.733 220.856C135.89 233.809 150.413 260.695 165.065 280.508C186.628 309.664 225.765 349.973 289.761 376.449C301.007 381.102 313.831 378.547 322.44 369.941L336.929 355.449L466.308 452.316L454.757 463.863C415.026 503.598 357.206 493.855 315.694 478.688Z" fill="#1571A8"/>
<path d="M213.738 366.45C203.175 357.188 184.906 341.259 175.285 331.36C151.691 307.114 126.937 277.724 112.218 256.489C109.074 251.95 102.843 250.817 98.3044 253.966C93.7653 257.11 92.6364 263.341 95.781 267.88C114.343 294.661 141.617 325.434 160.949 345.302C171.105 355.755 189.531 371.825 200.55 381.485C204.695 385.118 211.011 384.72 214.664 380.559C218.304 376.411 217.89 370.091 213.738 366.45Z" fill="#1571A8"/>
</g>
<defs>
<clipPath id="clip0">
<rect width="512" height="512" fill="white"/>
</clipPath>
</defs>
</svg>
